<svg xmlns="http://www.w3.org/2000/svg" viewBox="0 0 44 44"><path fill="none" d="M0 0h44v44H0z"/><path fill="currentColor" d="M22.6 36.8a1.2 1.2 0 110 2.4H4.2a1.2 1.2 0 010-2.4h1.2a2.4 2.4 0 01.7-1.8 2.4 2.4 0 011.8-.7h11a2.3 2.3 0 012.4 2.5zM18.2 5.5a1 1 0 011.7-.1L30.2 14a1 1 0 01.1 1.7l-.8 1a1 1 0 01-1.8.2L26 15.3c-.3-.2-.6-.2-.8 0a.5.5 0 000 1 1 1 0 01.1 1.6L23 20.7l5.4 4.6a2.5 2.5 0 013.4-.3l9.7 8.3a1.1 1.1 0 01.2 1.7l-3.2 3.8a1.1 1.1 0 01-1.7.2L27 30.6a2.6 2.6 0 01-.9-1.7 2.4 2.4 0 01.6-1.8l-5.4-4.5-2.3 2.8a1 1 0 01-1.7.1.6.6 0 00-.9.2.5.5 0 000 .8l2 1.6a1 1 0 010 1.7l-.8 1a1.1 1.1 0 01-1.7.2L5.7 22.3a1.1 1.1 0 01-.2-1.7l.9-1a1.1 1.1 0 011.7-.2L9.9 21a.5.5 0 00.9 0 .5.5 0 000-1 1 1 0 01-.2-1.7l6.2-7.4a1 1 0 011.7-.2.5.5 0 00.9 0 .5.5 0 000-1l-2-1.5a1 1 0 010-1.7z"/></svg>