<svg xmlns="http://www.w3.org/2000/svg" viewBox="0 0 44 44"><path fill="none" d="M0 0h44v44H0z"/><path fill="currentColor" d="M28 38.1c3.9 0 7.6.5 8.8 1-1.2.3-4.8-.2-8.8-1m-7.6-19.6l5 5-4 4.1-5-5zm8.8-8.7l5 5-4 4-5-5zM22.8 37a617.6 617.6 0 01-9.8-2l3.2-3.2h.2a4.3 4.3 0 003-1.3l1.4-1.3 1.1-1.2 4-4 4.8-4.7 4-4 1-1.1 2-2a4.3 4.3 0 00-6-6l-2 2-1 1-4 4-4.8 4.7-4 4-1.2 1.2-1.3 1.4a4.3 4.3 0 00-1.3 3.2L6.8 33a2.9 2.9 0 104 4l1-.8 5.4 1.1 2.3.5c-7.1 2-10.5 1.5-11.3.9-.3-.2-.3-.4-.3-.4a.7.7 0 00-1.4 0 1.8 1.8 0 00.8 1.5 6.5 6.5 0 003.8.9 36.3 36.3 0 009.7-1.8 18.7 18.7 0 012-.4C31.9 40.4 36.7 41 38 40a1.1 1.1 0 00.4-1.5c-.8-1.7-9.5-2.4-15.6-1.5"/></svg>