<svg xmlns="http://www.w3.org/2000/svg" viewBox="0 0 44 44"><path fill="none" d="M0 0h44v44H0z"/><path fill="currentColor" d="M36.1 25.2l-1-.5A15 15 0 0021 5 15 15 0 006.1 20 14.5 14.5 0 0010 30a14.3 14.3 0 009.4 4.8v1.1A16 16 0 1137 20a16 16 0 01-.9 5.2zM11.3 10.3a13.2 13.2 0 00-4 9.7 13.4 13.4 0 003.4 9.1 13.2 13.2 0 008.6 4.6v-7h-2.1c-.3 0-.4-.2-.4-.5v-.8a.4.4 0 01.2-.4l1-.4a4.3 4.3 0 01.8-.2v-9.1h-1.9a.4.4 0 01-.4-.3l-.1-.8a.4.4 0 01.3-.4A17.1 17.1 0 0019 13a11.5 11.5 0 002-1 .5.5 0 01.2 0h1.2a.4.4 0 01.4.3v6.5L34 24.2a12.8 12.8 0 00.7-4.2 13 13 0 00-4-9.7c-2.7-2.7-4.9-4-9.7-4s-7.4 2-9.7 4zM22 39.8V21.5l16.3 8a.5.5 0 00.8-.3.5.5 0 00-.3-.8l-17.2-8.3a.4.4 0 00-.5 0 .5.5 0 00-.3.5v19.2a.6.6 0 001.2 0zm1.1-2.8a14.5 14.5 0 007.5-2.3 14.3 14.3 0 005-5.3l-1-.5a12.4 12.4 0 01-11.5 7z"/></svg>