<svg xmlns="http://www.w3.org/2000/svg" viewBox="0 0 44 44"><path fill="none" d="M0 0h44v44H0z"/><path fill="currentColor" d="M38.6 17a.5.5 0 01.2.6l-9.3 23a.5.5 0 01-.5.3.5.5 0 01-.2-.1l-12.2-4.5a.5.5 0 01-.3-.2.6.6 0 010-.6l1-2.1-11-5.3a.5.5 0 01-.3-.3.4.4 0 01.1-.5l3.4-6 9.6-17a.6.6 0 01.6-.3l12.2 1.3a.2.2 0 00.1 0h.1v.1h.1l.1.1V6l-1.5 3.3zM12 22.9l-4.5 4.5.8.4 4.6-4.6zm-3.2 2l2.3-2.4-.8-.3zm.3 3.3l.9.4 4.7-4.8-.9-.3zm1.7.8l.8.4 4.9-5-1-.2zm1.6.8l.9.4 5-5-.9-.4zm1.7.8l.9.4 5.2-5.2-1-.4zm3.3-20.8l-1.7 2.9 7.1-7.2-1-.1zm-1.6 21.5l.8.4 5.3-5.3-.9-.3zM25 5.7l-1-.1-7.7 7.7 1 .3zm-7.7 26.4l.9.4 5.5-5.5-1-.3zm8.2-4.4l-1-.3-6 6-1 2 .1.1zM27.3 6h-1l-8.1 8 1 .2zm0 22.4l-.9-.3-7.8 7.9 1 .3zm-6.6-23l-.8-.1L19 7zm8.8.9l-1-.1-8.4 8.3 1 .3zM29.2 29l-1-.4-7.8 8 .9.3zm1.5-22.7L22 14.9l1 .3 7-7.1.9-1.8zm.3 23.3l-1-.3-7.8 7.9.9.3zm-2-19.2l-5 5 .9.3 3-3zm3.4 19.8l-.5-.3-8 8 1 .3 7.3-7.3zm5.2-12.7l-7.3-7.1-3 6 1.7.5a.5.5 0 01.4.3.6.6 0 010 .5l-4.2 8.6 7.7 2.8zm-11 21.3l3.9-3.8.9-2-5.6 5.5zm.2-23.7l-1 .9.5.1zm2.9 22l-2.1 2 1 .4z"/></svg>