<svg xmlns="http://www.w3.org/2000/svg" viewBox="0 0 100 100"><defs><clipPath id="a"><path fill="none" d="M0 0h100v100H0z" transform="translate(3)"/></clipPath><style>.d{fill:#fff}</style></defs><g clip-path="url(#a)" transform="translate(-3)"><g opacity=".3"><path d="M4.6 57.9v-2.2l6.4-9.2-6.4-9.2v-2.2h96.1v2.2l-6.3 9.2 6.3 9.2v2.2z"/><path d="M100.5 35.4v1.4L94 46.5l6.5 9.6v1.5H4.9v-1.5l6.5-9.6L5 36.8v-1.4h95.6m1.2-1.3h-98v3.1l.2.3 6 9-6 9-.3.3v3h98.1v-3l-.2-.4-6-9 6-8.9.2-.3v-3.1z" class="d"/><path d="M33 72.2a26.6 26.6 0 01-3.7-3.3A26.5 26.5 0 0122 51V19l30.6-6.4L83.1 19v32A26.5 26.5 0 0176 69a26.6 26.6 0 01-3.7 3.3L52.7 86.7z"/><path d="M52.7 13.3l29.7 6.2V51a25.5 25.5 0 01-6.8 17.4 25.5 25.5 0 01-3.6 3.2L52.7 85.8 33.4 71.6a25.5 25.5 0 01-3.6-3.2A25.5 25.5 0 0122.9 51V19.5l29.8-6.2m0-3.9l-.8.2-29.8 6.2-3 .7V51a29.2 29.2 0 008 20 29.4 29.4 0 004 3.6l19.4 14.2 2.2 1.6 2.2-1.6 19.3-14.2a29.4 29.4 0 004.1-3.6 29.2 29.2 0 008-20V16.5l-3-.7-29.8-6.2-.8-.2z"/><path d="M33.1 72a26.2 26.2 0 01-3.7-3.2 26.1 26.1 0 01-7-18V19.2l30.3-6.3L83 19v32a26.1 26.1 0 01-7 17.9 26.2 26.2 0 01-3.7 3.2L52.7 86.4z"/><path d="M52.7 13.3l29.7 6.2V51a25.5 25.5 0 01-6.8 17.4 25.5 25.5 0 01-3.6 3.2L52.7 85.8 33.4 71.6a25.5 25.5 0 01-3.6-3.2A25.5 25.5 0 0122.9 51V19.5l29.8-6.2m0-2.6l-.5.1-29.8 6.3-2 .4V51A28 28 0 0028 70.1a28.1 28.1 0 003.9 3.5l19.3 14.2 1.5 1 1.5-1 19.3-14.2a28.1 28.1 0 004-3.5A28 28 0 0085 51V17.5l-2-.4-29.8-6.3h-.5z" class="d"/><path d="M16.8 28.8h71.8v22.8H16.8z"/><path d="M88.3 29v22.4H17.1V29h71.2m1.3-1.3H15.8v24.8h73.8V27.8z" class="d"/></g></g></svg>