<svg xmlns="http://www.w3.org/2000/svg" viewBox="0 0 115 100"><defs><clipPath id="a"><path fill="none" d="M0 0h115v100H0z" transform="translate(0 9.3)"/></clipPath><style>.d{fill:#fff}</style></defs><g clip-path="url(#a)" transform="translate(0 -9.3)"><g opacity=".3"><circle cx="40.8" cy="40.8" r="40.8" transform="rotate(-45 69.6 28.8)"/><path d="M57.7 18.7a39 39 0 11-39 39 39 39 0 0139-39m0-3.7a42.6 42.6 0 1042.6 42.7A42.7 42.7 0 0057.7 15z"/><g transform="translate(.9 .9)"><circle cx="40.2" cy="40.2" r="40.2" transform="rotate(-45 68.6 28.4)"/><path d="M56.8 17.9a39 39 0 11-39 39 39 39 0 0139-39m0-2.5a41.4 41.4 0 1041.4 41.4 41.4 41.4 0 00-41.4-41.4z" class="d"/></g><path d="M1.1 69.2v-2.3l6.3-9.2L1 48.4v-2.2h113.1v2.2l-6.2 9.3 6.2 9.2v2.3z" class="d"/><path d="M113.6 46.8v1.4l-6.3 9.5 6.3 9.4v1.5H1.7V67l6.4-9.4-6.4-9.5v-1.4h112m1.2-1.2H.5v3l.2.3 6 8.8-6 8.7-.2.3v3.1H115v-3l-.3-.4-5.9-8.7 6-8.8.2-.3v-3z"/><path d="M57.7 77.6a19.9 19.9 0 1119.9-20 19.9 19.9 0 01-20 20z" class="d"/><path d="M57.7 38.4a19.3 19.3 0 11-19.3 19.3 19.3 19.3 0 0119.3-19.3m0-1.2a20.5 20.5 0 1020.5 20.5 20.5 20.5 0 00-20.5-20.5z"/></g></g></svg>