<svg xmlns="http://www.w3.org/2000/svg" viewBox="0 0 148 100"><defs><style>.b{fill:#fff}</style></defs><g opacity=".3"><path d="M5.7 50.1L73.5 22l67.9 28.1-67.9 28.2z"/><path d="M73.5 24l63 26.1-63 26.2-63-26.2 63-26.1m0-4l-1.4.6-63 26.1-8.2 3.4L9 53.5l63 26.2 1.4.6 1.4-.6 63-26.2 8.3-3.4-8.2-3.4-63-26.1-1.5-.6z"/><path d="M7.3 50.1l66.2-27.4L139.8 50 73.5 77.6z"/><path d="M73.5 24l63 26.1-63 26.2-63-26.2 63-26.1m0-2.7l-1 .4L9.6 48l-5.4 2 5.5 2.3 63 26.2 1 .4.9-.4 63-26.2 5.5-2.3-5.5-2.2-63-26.2-1-.4z" class="b"/><path d="M43.1 36.6v27l30.4 12.7L104 63.7v-27L73.5 24z" class="b"/><path d="M73.5 26l58.3 24-58.3 24.3L15.3 50l58.2-24m0-2l-63 26 63 26.2 63-26.2-63-26.1z"/></g><path fill="none" d="M0 0h148v100H0z"/></svg>