<svg xmlns="http://www.w3.org/2000/svg" viewBox="0 0 110 100"><defs><clipPath id="a"><path fill="none" d="M0 0h110v100H0z"/></clipPath></defs><g clip-path="url(#a)" opacity=".3"><path d="M54.9 7L56 33.4l4.8-26-2.5 26.3 8.3-25-6.2 25.7 11.8-23.7-9.7 24.6 15-21.8-13 23L82.3 17 66.2 38l20.4-17-18.9 18.7 22.6-13.9L69 41.5 93.2 31 70 43.6l25.5-7-24.8 9.2 26.2-3.5L71.1 48l26.4.2-26.3 2 26.1 4L71 52.5 96.3 60l-26-5.3 24.2 11-25-8.8L91.8 71 68.4 58.8 88.5 76 67 60.6l17.5 19.8-19.2-18.2 14.7 22-16.5-20.7 11.4 24-13.4-22.9 8 25.2-10.1-24.4 4.3 26L57.1 66l.7 26.4-3-26.3-3 26.3.8-26.4L46 91.5l4.4-26.1-10.1 24.4 8-25.2-13.5 22.8 11.4-23.9-16.4 20.7 14.6-22-19.2 18.2 17.5-19.8L21.2 76l20.1-17.2L18 71.1l22.3-14.2-25 8.8 24.1-11-26 5.3 25.4-7.5-26.4 1.7 26.2-4-26.4-2 26.4-.2-25.8-5.7L39 45.8l-24.7-9.3 25.4 7L16.5 31l24.2 10.5-21.2-15.7L42 39.7 23.1 21l20.4 17-16-21 17.8 19.5-13-23 15 21.8-9.8-24.6 11.8 23.7L43 8.7l8.4 25-2.6-26.3 4.8 26z"/><path d="M40.8 80l-38-17.2v-26l38-17.2h28.1l38 17.2v26L68.9 80z"/><path d="M68.5 21.4L105 38v23.6L68.5 78H41.2L4.7 61.6V38l36.5-16.6h27.3m.8-3.7h-29l-.7.3L3.2 34.6l-2.2 1V64l2.2 1 36.4 16.5.8.4h29l.7-.4L106.5 65l2.2-1V35.6l-2.2-1L70.1 18l-.8-.3z"/><path d="M41 79.4l-37.5-17V37.2l37.4-17h27.9l37.4 17v25.2l-37.4 17z"/><path fill="#fff" d="M68.5 21.4L105 38v23.6L68.5 78H41.2L4.7 61.6V38l36.5-16.6h27.3m.6-2.4H40.7l-.5.2L3.7 35.8l-1.5.6v26.8l1.5.6 36.5 16.6.5.2H69l.5-.2L106 63.8l1.5-.6V36.4l-1.5-.7-36.4-16.5-.5-.2z"/></g></svg>