<svg xmlns="http://www.w3.org/2000/svg" viewBox="0 0 90 100"><defs><clipPath id="a"><path fill="none" d="M0 0h90v100H0z" transform="translate(35)"/></clipPath></defs><g clip-path="url(#a)" transform="translate(-35)"><g opacity=".3"><path d="M80.6 91a41 41 0 01-34.1-18.3l-.7-1 .7-1a38.2 38.2 0 000-42.2l-.7-1 .7-1.1a40.8 40.8 0 0168.1 0l.7 1-.7 1a38.2 38.2 0 000 42.2l.7 1-.7 1.1a41 41 0 01-34 18.4z"/><path d="M80.6 8.8a40.7 40.7 0 0133.8 18 40.8 40.8 0 000 45.5 40.7 40.7 0 01-67.7 0 40.8 40.8 0 000-45.5 40.7 40.7 0 0133.9-18m0-3.8a44.5 44.5 0 00-37 19.7l-1.4 2.1 1.4 2.2a37 37 0 010 41.1l-1.4 2.2 1.4 2a44.5 44.5 0 0074 0l1.4-2-1.5-2.2a37 37 0 010-41.1l1.5-2.2-1.5-2A44.5 44.5 0 0080.5 5z"/><path d="M80.6 90a39.7 39.7 0 01-33.2-17.8l-.4-.7.4-.7a38.6 38.6 0 000-42.5l-.4-.7.4-.6a39.6 39.6 0 0166.3 0l.4.6-.4.7a38.6 38.6 0 000 42.5l.4.7-.4.7A39.7 39.7 0 0180.5 90z"/><path fill="#fff" d="M80.6 9.5a39.6 39.6 0 0133 17.7 40.3 40.3 0 000 44.7 39.6 39.6 0 01-66 0 40.3 40.3 0 000-44.7 39.6 39.6 0 0133-17.7m0-2.5a42.1 42.1 0 00-35.1 18.8l-1 1.4 1 1.4a37.8 37.8 0 010 41.9l-1 1.4 1 1.4a42 42 0 0070.1 0l1-1.4-1-1.4a37.8 37.8 0 010-41.9l1-1.4-1-1.4A42.1 42.1 0 0080.6 7z"/></g></g></svg>