<svg xmlns="http://www.w3.org/2000/svg" viewBox="0 0 114 100"><defs><clipPath id="a"><path fill="none" d="M0 0h114v100H0z"/></clipPath><style>.d{fill:#fff}</style></defs><g clip-path="url(#a)" opacity=".3"><path d="M10.7 83.5l2.5-8.8L5.8 69l-.6-1.7 97.9-44 .6 1.9-2.5 8.8 7.4 5.6.6 1.7-97.8 44z" class="d"/><path d="M103.3 23.5l.4 1.2-2.5 9.2 7.6 5.8.4 1.2-98 44.4-.5-1.2 2.6-9.2-7.6-5.8-.4-1.2 98-44.4m.6-1.4l-1 .5L4.9 67l-.9.4.3.9.4 1.1v.3l.3.2 7.1 5.4L9.7 84v.6l.5 1.1.3 1.1 1-.5 98-44.4 1-.4-.4-.9-.3-1.1-.1-.3-.3-.2-7-5.4 2.3-8.6v-.6l-.4-1.1-.4-1.1z"/><path d="M25.8 68.5V16.6h62.3v52L57 83.7z"/><path d="M88 16.7v51.8L57 83.7 26 68.5V16.7h62m3.1-3H22.8v56.7l1.7.9 31.1 15.2 1.4.7 1.3-.7 31.1-15.2 1.7-.9V13.6z"/><path d="M25.8 68.5V16.6h62.3v52L57 83.7z"/><path d="M88 16.7v51.8L57 83.7 26 68.5V16.7h62m2.1-2H23.8v55l1.2.6 31 15.3 1 .4.9-.4 31-15.3 1.2-.5V14.6z" class="d"/><path d="M22.3 70.2l69.4-30.9V20.6L22.3 51.5z" class="d"/><path d="M21.3 71.7V51.3l71.4-32.2v20.4zm1-19.7v18.1l69.3-31.3V20.7z"/></g></svg>